<!DOCTYPE svg PUBLIC "-//W3C//DTD SVG 1.1//EN" "http://www.w3.org/Graphics/SVG/1.1/DTD/svg11.dtd">
<!-- Uploaded to: SVG Repo, www.svgrepo.com, Transformed by: SVG Repo Mixer Tools -->
<svg xmlns="http://www.w3.org/2000/svg" xmlns:xlink="http://www.w3.org/1999/xlink" version="1.1" id="lifesignal" viewBox="-22.11 -22.11 265.35 265.35" enable-background="new 0 0 221.1309 205.1696" xml:space="preserve" width="256px" height="256px" fill="#000000">
<g id="SVGRepo_bgCarrier" stroke-width="0">
<rect x="-22.11" y="-22.11" width="265.35" height="265.35" rx="26.535" fill="#4f5dff" strokewidth="0"/>
</g>
<g id="SVGRepo_tracerCarrier" stroke-linecap="round" stroke-linejoin="round"/>
<g id="SVGRepo_iconCarrier"> <g> <path fill="#6d83ff" d="M170.8418,105.1482c0-2.209,1.791-4,4-4h1.0391c-1.1094-31.4277-25.6611-56.9482-56.696-59.5391 c-0.1594,1.8359-1.5024,3.3955-3.4055,3.6367c-0.1699,0.0215-0.3398,0.0312-0.5078,0.0312c-1.9844,0-3.707-1.4766-3.9629-3.498 l-0.0374-0.2959c-5.311,0.2324-10.4644,1.0732-15.3499,2.5654c-0.6897,1.4248-2.1133,2.2578-3.5991,2.2578 c-0.5537,0-1.1108-0.1309-1.6462-0.3721c-22.0159,8.9736-37.6995,30.2402-38.5735,55.2344 C54.2615,101.2263,56,102.9753,56,105.1482c0,2.1084-1.647,3.79-3.7166,3.9434c2.9111,31.501,29.4604,56.2539,61.7087,56.2539 c4.375,0,8.6406-0.4688,12.762-1.335l-1.4045-11.1143c-0.2773-2.1914,1.2754-4.1934,3.4668-4.4707 c2.1738-0.2637,4.1934,1.2754,4.4707,3.4668l1.2488,9.8809c3.6584-1.29,7.1577-2.9004,10.4668-4.8223 c-0.1211-0.6172-0.1462-1.2549,0.0461-1.8984l4.5762-15.332c0.6328-2.1152,2.8535-3.3281,4.9766-2.6875 c2.1172,0.6309,3.3203,2.8594,2.6875,4.9766l-2.3069,7.7295c11.488-10.1621,19.2112-24.4697,20.7161-40.5908h-0.8564 C172.6328,109.1482,170.8418,107.3571,170.8418,105.1482z M75.2969,87.365l-6.8789,14.4453 c-0.6855,1.4395-2.1191,2.2793-3.6133,2.2793c-0.5781,0-1.1621-0.125-1.7188-0.3887c-1.9941-0.9492-2.8398-3.3359-1.8906-5.332 l6.8789-14.4453c0.9492-1.998,3.3359-2.832,5.332-1.8906C75.4004,82.9821,76.2461,85.3689,75.2969,87.365z M89.0566,58.4724 l-6.8809,14.4473c-0.6855,1.4395-2.1191,2.2793-3.6133,2.2793c-0.5781,0-1.1621-0.125-1.7188-0.3887 c-1.9941-0.9492-2.8398-3.3359-1.8906-5.332L81.834,55.031c0.9512-1.998,3.3398-2.832,5.332-1.8906 C89.1602,54.0896,90.0059,56.4763,89.0566,58.4724z M115.3203,73.5271l-2.0059-15.873c-0.2773-2.1914,1.2754-4.1934,3.4668-4.4707 c2.1953-0.2754,4.1934,1.2734,4.4707,3.4668l2.0059,15.873c0.2773,2.1914-1.2754,4.1934-3.4668,4.4707 c-0.1699,0.0215-0.3398,0.0312-0.5078,0.0312C117.2988,77.0251,115.5762,75.5486,115.3203,73.5271z M119.332,105.2751 l-2.0059-15.875c-0.2773-2.1914,1.2754-4.1934,3.4668-4.4707c2.1875-0.2617,4.1934,1.2754,4.4707,3.4668l2.0059,15.875 c0.2773,2.1914-1.2754,4.1934-3.4668,4.4707c-0.1699,0.0215-0.3398,0.0312-0.5078,0.0312 C121.3105,108.7732,119.5879,107.2966,119.332,105.2751z M127.8145,140.49c-0.1699,0.0215-0.3398,0.0312-0.5078,0.0312 c-1.9844,0-3.707-1.4766-3.9629-3.498l-2.0059-15.875c-0.2773-2.1914,1.2754-4.1934,3.4668-4.4707 c2.1816-0.2754,4.1953,1.2734,4.4707,3.4668l2.0059,15.875C131.5586,138.2107,130.0059,140.2126,127.8145,140.49z M166.4395,111.3435l-4.5742,15.334c-0.5195,1.7344-2.1094,2.8574-3.832,2.8574c-0.3789,0-0.7637-0.0547-1.1465-0.168 c-2.1152-0.6328-3.3203-2.8613-2.6895-4.9785l4.5742-15.332c0.6328-2.1152,2.8496-3.3203,4.9785-2.6895 C165.8652,106.9997,167.0703,109.2282,166.4395,111.3435z"/> <path fill="#191f63" d="M119.791,76.9939c2.1914-0.2773,3.7441-2.2793,3.4668-4.4707l-2.0059-15.873 c-0.2773-2.1934-2.2754-3.7422-4.4707-3.4668c-2.1914,0.2773-3.7441,2.2793-3.4668,4.4707l2.0059,15.873 c0.2559,2.0215,1.9785,3.498,3.9629,3.498C119.4512,77.0251,119.6211,77.0154,119.791,76.9939z"/> <path fill="#191f63" d="M123.8027,108.7419c2.1914-0.2773,3.7441-2.2793,3.4668-4.4707l-2.0059-15.875 c-0.2773-2.1914-2.2832-3.7285-4.4707-3.4668c-2.1914,0.2773-3.7441,2.2793-3.4668,4.4707l2.0059,15.875 c0.2559,2.0215,1.9785,3.498,3.9629,3.498C123.4629,108.7732,123.6328,108.7634,123.8027,108.7419z"/> <path fill="#191f63" d="M124.8047,116.6775c-2.1914,0.2773-3.7441,2.2793-3.4668,4.4707l2.0059,15.875 c0.2559,2.0215,1.9785,3.498,3.9629,3.498c0.168,0,0.3379-0.0098,0.5078-0.0312c2.1914-0.2773,3.7441-2.2793,3.4668-4.4707 l-2.0059-15.875C129,117.9509,126.9863,116.4021,124.8047,116.6775z"/> <path fill="#191f63" d="M217.1309,101.1482h-10.2891c-2.209,0-4,1.791-4,4s1.791,4,4,4h10.2891c2.209,0,4-1.791,4-4 S219.3398,101.1482,217.1309,101.1482z"/> <path fill="#191f63" d="M163.75,106.3669c-2.1289-0.6309-4.3457,0.5742-4.9785,2.6895l-4.5742,15.332 c-0.6309,2.1172,0.5742,4.3457,2.6895,4.9785c0.3828,0.1133,0.7676,0.168,1.1465,0.168c1.7227,0,3.3125-1.123,3.832-2.8574 l4.5742-15.334C167.0703,109.2282,165.8652,106.9997,163.75,106.3669z"/> <path fill="#191f63" d="M190.8418,101.1482h-6.9609c-1.1294-36.1211-29.7039-65.3672-65.5459-67.583l-1.0947-8.6631 c-0.2773-2.1914-2.293-3.7285-4.4707-3.4668c-2.1914,0.2773-3.7441,2.2793-3.4668,4.4707l0.9639,7.6279 c-3.3582,0.1787-6.6704,0.5264-9.8882,1.1631l2.436-5.1152c0.9492-1.9961,0.1035-4.3828-1.8906-5.332 c-1.9941-0.9453-4.3809-0.1055-5.332,1.8906l-5.4697,11.4863c-26.2019,9.5498-45.1042,34.2754-46.0186,63.5215H36 c-2.209,0-4,1.791-4,4s1.791,4,4,4h8.2861c2.9661,35.8867,33.0671,64.1973,69.7061,64.1973c5.2473,0,10.3433-0.627,15.2637-1.7275 c0.6152,0.3809,1.303,0.6494,2.0625,0.6494c0.168,0,0.3379-0.0098,0.5078-0.0312c1.3018-0.165,2.3179-0.9727,2.9192-2.0332 c26.7175-8.3105,46.5715-32.2422,48.9529-61.0547h7.1436c2.209,0,4-1.791,4-4S193.0508,101.1482,190.8418,101.1482z M154.9822,149.739l2.3069-7.7295c0.6328-2.1172-0.5703-4.3457-2.6875-4.9766c-2.123-0.6406-4.3438,0.5723-4.9766,2.6875 l-4.5762,15.332c-0.1924,0.6436-0.1672,1.2812-0.0461,1.8984c-3.3091,1.9219-6.8083,3.5322-10.4668,4.8223l-1.2488-9.8809 c-0.2773-2.1914-2.2969-3.7305-4.4707-3.4668c-2.1914,0.2773-3.7441,2.2793-3.4668,4.4707l1.4045,11.1143 c-4.1213,0.8662-8.387,1.335-12.762,1.335c-32.2483,0-58.7976-24.7529-61.7087-56.2539C54.353,108.9382,56,107.2566,56,105.1482 c0-2.1729-1.7385-3.9219-3.8975-3.9795c0.874-24.9941,16.5576-46.2607,38.5735-55.2344c0.5354,0.2412,1.0925,0.3721,1.6462,0.3721 c1.4858,0,2.9094-0.833,3.5991-2.2578c4.8855-1.4922,10.0388-2.333,15.3499-2.5654l0.0374,0.2959 c0.2559,2.0215,1.9785,3.498,3.9629,3.498c0.168,0,0.3379-0.0098,0.5078-0.0312c1.9031-0.2412,3.2461-1.8008,3.4055-3.6367 c31.0349,2.5908,55.5867,28.1113,56.696,59.5391h-1.0391c-2.209,0-4,1.791-4,4s1.791,4,4,4h0.8564 C174.1934,125.2693,166.4702,139.5769,154.9822,149.739z"/> <path fill="#191f63" d="M87.166,53.1404c-1.9922-0.9414-4.3809-0.1074-5.332,1.8906l-6.8809,14.4473 c-0.9492,1.9961-0.1035,4.3828,1.8906,5.332c0.5566,0.2637,1.1406,0.3887,1.7188,0.3887c1.4941,0,2.9277-0.8398,3.6133-2.2793 l6.8809-14.4473C90.0059,56.4763,89.1602,54.0896,87.166,53.1404z"/> <path fill="#191f63" d="M104.3613,17.0271c0.5566,0.2637,1.1406,0.3887,1.7188,0.3887c1.4941,0,2.9277-0.8398,3.6133-2.2793 l0.7988-1.6797c0.4102,0.0801,0.8418,0.0957,1.2754,0.043c2.1914-0.2773,3.7441-2.2793,3.4668-4.4707l-0.6992-5.5293 c-0.2227-1.7617-1.5801-3.166-3.334-3.4473c-1.7402-0.2871-3.4805,0.625-4.2461,2.2285l-4.4844,9.4141 C101.5215,13.6892,102.3672,16.0779,104.3613,17.0271z"/> <path fill="#191f63" d="M20,101.1482H4c-2.209,0-4,1.791-4,4s1.791,4,4,4h16c2.209,0,4-1.791,4-4S22.209,101.1482,20,101.1482z"/> <path fill="#191f63" d="M73.4062,82.0329c-1.9961-0.9414-4.3828-0.1074-5.332,1.8906l-6.8789,14.4453 c-0.9492,1.9961-0.1035,4.3828,1.8906,5.332c0.5566,0.2637,1.1406,0.3887,1.7188,0.3887c1.4941,0,2.9277-0.8398,3.6133-2.2793 l6.8789-14.4453C76.2461,85.3689,75.4004,82.9821,73.4062,82.0329z"/> <path fill="#191f63" d="M145.4512,167.695c-2.127-0.6348-4.3457,0.5723-4.9785,2.6895l-3.5684,11.9609 c-0.7383-1.4707-2.3496-2.3867-4.0762-2.1719c-2.1914,0.2773-3.7441,2.2793-3.4668,4.4707l2.0059,15.873 c0.2559,2.0215,1.9785,3.498,3.9629,3.498c0.168,0,0.3379-0.0098,0.5078-0.0312c2.1914-0.2773,3.7441-2.2793,3.4668-4.4707 l-1.1348-8.9688c0.1367,0.0566,0.2754,0.1074,0.418,0.1504c2.125,0.6309,4.3457-0.5723,4.9785-2.6895l4.5742-15.334 C148.7715,170.5564,147.5664,168.3279,145.4512,167.695z"/> </g> <path fill="#ff4fea" d="M24.2446,29.1696c-1.0239,0-2.0474-0.3906-2.8286-1.1714c-1.562-1.5625-1.562-4.0952,0-5.6572 L35.5581,8.1994c1.563-1.562,4.0952-1.561,5.6572,0c1.562,1.5625,1.562,4.0952,0,5.6572L27.0732,27.9983 C26.292,28.779,25.2681,29.1696,24.2446,29.1696z"/> <path fill="#ff4fea" d="M38.3867,29.1677c-1.0239,0-2.0474-0.3906-2.8286-1.1714L21.416,13.8537 c-1.562-1.5625-1.562-4.0952,0-5.6572c1.563-1.562,4.0952-1.561,5.6572,0l14.1421,14.1426c1.562,1.5625,1.562,4.0952,0,5.6572 C40.4341,28.7771,39.4102,29.1677,38.3867,29.1677z"/> <path fill="#a3ff4f" d="M34.2446,205.1696c-7.7197,0-14-6.2803-14-14s6.2803-14,14-14s14,6.2803,14,14 S41.9644,205.1696,34.2446,205.1696z M34.2446,185.1696c-3.3086,0-6,2.6914-6,6s2.6914,6,6,6s6-2.6914,6-6 S37.5532,185.1696,34.2446,185.1696z"/> <path fill="#fff14f" d="M199.5581,51.7946c-1.0239,0-2.0474-0.3906-2.8286-1.1714L185.416,39.3098 c-1.562-1.5625-1.562-4.0947,0-5.6572l11.3135-11.3135c1.5625-1.5615,4.0952-1.5615,5.6567,0l11.314,11.3135 c0.7505,0.7505,1.1719,1.7676,1.1719,2.8286s-0.4214,2.0781-1.1719,2.8286l-11.314,11.3135 C201.6055,51.404,200.5815,51.7946,199.5581,51.7946z M193.9014,36.4812l5.6567,5.6567l5.6572-5.6567l-5.6572-5.6567 L193.9014,36.4812z"/> </g>
</svg>